<svg width="20" height="20" viewBox="0 0 20 20" fill="none" xmlns="http://www.w3.org/2000/svg">
<g clip-path="url(#clip0_667_1685)">
<path d="M7.62704 4.50675C8.68288 2.61341 9.21038 1.66675 9.99954 1.66675C10.7887 1.66675 11.3162 2.61341 12.372 4.50675L12.6454 4.99675C12.9454 5.53508 13.0954 5.80425 13.3287 5.98175C13.562 6.15925 13.8537 6.22508 14.437 6.35675L14.967 6.47675C17.017 6.94091 18.0412 7.17258 18.2854 7.95675C18.5287 8.74008 17.8304 9.55758 16.4329 11.1917L16.0712 11.6142C15.6745 12.0784 15.4754 12.3109 15.3862 12.5976C15.297 12.8851 15.327 13.1951 15.387 13.8142L15.442 14.3784C15.6529 16.5592 15.7587 17.6492 15.1204 18.1334C14.482 18.6184 13.522 18.1759 11.6037 17.2926L11.1062 17.0642C10.5612 16.8126 10.2887 16.6876 9.99954 16.6876C9.71038 16.6876 9.43788 16.8126 8.89204 17.0642L8.39621 17.2926C6.47704 18.1759 5.51704 18.6176 4.87954 18.1342C4.24038 17.6492 4.34621 16.5592 4.55704 14.3784L4.61204 13.8151C4.67204 13.1951 4.70204 12.8851 4.61204 12.5984C4.52371 12.3109 4.32454 12.0784 3.92788 11.6151L3.56621 11.1917C2.16871 9.55842 1.47038 8.74092 1.71371 7.95675C1.95788 7.17258 2.98288 6.94008 5.03288 6.47675L5.56288 6.35675C6.14538 6.22508 6.43621 6.15925 6.67038 5.98175C6.90371 5.80425 7.05371 5.53508 7.35371 4.99675L7.62704 4.50675Z" fill="#F7B902" stroke="#F7B902" stroke-width="2"/>
</g>
<defs>
<clipPath id="clip0_667_1685">
<rect width="20" height="20" fill="white"/>
</clipPath>
</defs>
</svg>
