<svg width="20" height="20" viewBox="0 0 20 20" fill="#F7B902" xmlns="http://www.w3.org/2000/svg">
<g clip-path="url(#clip0_1227_770)">
<path d="M7.62753 4.5065C8.68337 2.61317 9.21087 1.6665 10 1.6665C10.7892 1.6665 11.3167 2.61317 12.3725 4.5065L12.6459 4.9965C12.9459 5.53484 13.0959 5.804 13.3292 5.9815C13.5625 6.159 13.8542 6.22484 14.4375 6.3565L14.9675 6.4765C17.0175 6.94067 18.0417 7.17234 18.2859 7.9565C18.5292 8.73984 17.8309 9.55734 16.4334 11.1915L16.0717 11.614C15.675 12.0782 15.4759 12.3107 15.3867 12.5973C15.2975 12.8848 15.3275 13.1948 15.3875 13.814L15.4425 14.3782C15.6534 16.559 15.7592 17.649 15.1209 18.1332C14.4825 18.6182 13.5225 18.1757 11.6042 17.2923L11.1067 17.064C10.5617 16.8123 10.2892 16.6873 10 16.6873C9.71087 16.6873 9.43837 16.8123 8.89253 17.064L8.3967 17.2923C6.47753 18.1757 5.51753 18.6173 4.88003 18.134C4.24087 17.649 4.3467 16.559 4.55753 14.3782L4.61253 13.8148C4.67253 13.1948 4.70253 12.8848 4.61253 12.5982C4.5242 12.3107 4.32503 12.0782 3.92837 11.6148L3.5667 11.1915C2.1692 9.55817 1.47087 8.74067 1.7142 7.9565C1.95837 7.17234 2.98337 6.93984 5.03337 6.4765L5.56337 6.3565C6.14587 6.22484 6.4367 6.159 6.67087 5.9815C6.9042 5.804 7.0542 5.53484 7.3542 4.9965L7.62753 4.5065Z" stroke="#96989E" stroke-width="2"/>
</g>
<defs>
<clipPath id="clip0_1227_770">
<rect width="20" height="20" fill="#F7B902"/>
</clipPath>
</defs>
</svg>
